<svg xmlns="http://www.w3.org/2000/svg" data-name="Layer 1" viewBox="0 0 100 100" x="0px" y="0px"><title>Artboard 10</title><path d="M61.68,4.41H38.32A36.67,36.67,0,0,0,1.65,41.08h0A36.67,36.67,0,0,0,33,77.36a33,33,0,0,1-.93,14.45,2.94,2.94,0,0,0,4.14,3.46c6.1-3.08,14.74-8.74,19.35-17.53h6.13A36.67,36.67,0,0,0,98.35,41.08h0A36.67,36.67,0,0,0,61.68,4.41ZM49.55,63.07a3.83,3.83,0,1,1,3.83-3.83A3.83,3.83,0,0,1,49.55,63.07Zm4.19-18.58s-.38.14-.38.36v3a3.81,3.81,0,1,1-7.62,0v-3a8.06,8.06,0,0,1,5.55-7.57A5.41,5.41,0,0,0,55,32,5.56,5.56,0,0,0,49.5,26.7a5.39,5.39,0,0,0-4.85,3.08,3.81,3.81,0,0,1-6.86-3.31,13,13,0,0,1,11.66-7.39h.08A13.15,13.15,0,0,1,62.59,31.74,13,13,0,0,1,53.73,44.49Z"></path></svg>
