<svg height='300px' width='300px'
	xmlns="http://www.w3.org/2000/svg"
	xmlns:xlink="http://www.w3.org/1999/xlink" aria-labelledby="title" version="1.1" viewBox="0 0 32 32" x="0px" y="0px">
	<title lang="en">Settings</title>
	<path  class="icons-background" d="M32 19v-6l-4.6-0.8c-0.2-0.6-0.4-1.1-0.7-1.6l2.7-3.8-4.2-4.2-3.8 2.7c-0.5-0.3-1.1-0.5-1.6-0.7l-0.8-4.6h-6l-0.8 4.6c-0.6 0.2-1.1 0.4-1.6 0.7l-3.8-2.7-4.2 4.2 2.7 3.8c-0.3 0.5-0.5 1.1-0.7 1.6l-4.6 0.8v6l4.6 0.8c0.2 0.6 0.4 1.1 0.7 1.6l-2.7 3.8 4.2 4.2 3.8-2.7c0.5 0.3 1.1 0.5 1.6 0.7l0.8 4.6h6l0.8-4.6c0.6-0.2 1.1-0.4 1.6-0.7l3.8 2.7 4.2-4.2-2.7-3.8c0.3-0.5 0.5-1.1 0.7-1.6l4.6-0.8zM16 22c-3.3 0-6-2.7-6-6s2.7-6 6-6 6 2.7 6 6-2.7 6-6 6z"></path>
</svg>
