<svg height='300px' width='300px'  xmlns:x="http://ns.adobe.com/Extensibility/1.0/" xmlns:i="http://ns.adobe.com/AdobeIllustrator/10.0/" xmlns:graph="http://ns.adobe.com/Graphs/1.0/" xmlns="http://www.w3.org/2000/svg" xmlns:xlink="http://www.w3.org/1999/xlink" version="1.1" x="0px" y="0px" viewBox="0 0 64 64" enable-background="new 0 0 64 64" xml:space="preserve"><metadata><sfw xmlns="http://ns.adobe.com/SaveForWeb/1.0/"><slices></slices><sliceSourceBounds height="16384" width="16389" x="-8165" y="-8160" bottomLeftOrigin="true"></sliceSourceBounds></sfw></metadata><g><path d="M32,6C17.664,6,6,17.664,6,32c0,14.337,11.664,26,26,26c14.337,0,26-11.663,26-26C58,17.664,46.337,6,32,6z M44,34   c-1.104,0-2-0.896-2-2c0-5.22-4.021-9.512-9.127-9.956l0.542,0.542c0.781,0.781,0.781,2.047,0,2.828C33.023,25.805,32.512,26,32,26   s-1.024-0.195-1.414-0.586l-4-4c-0.781-0.781-0.781-2.047,0-2.828l4-4c0.78-0.781,2.047-0.781,2.828,0   c0.781,0.781,0.781,2.047,0,2.828l-0.626,0.626C40.141,18.453,46,24.546,46,32C46,33.104,45.104,34,44,34z"></path></g></svg>