<svg height='300px' width='300px'   xmlns="http://www.w3.org/2000/svg" xmlns:xlink="http://www.w3.org/1999/xlink" version="1.1" x="0px" y="0px" viewBox="0 0 100 100" style="enable-background:new 0 0 100 100;" xml:space="preserve"><g><g><path d="M88.1,20.5H85c-1.6,0-2.8,1.3-2.8,2.8v39.6c0,1.6,1.3,2.8,2.8,2.8h3.1c1.6,0,2.8-1.3,2.8-2.8V23.3    C90.9,21.8,89.7,20.5,88.1,20.5z"></path><path d="M88.2,70h-3.3c-1.5,0-2.7,1.2-2.7,2.7V77c0,1.5,1.2,2.7,2.7,2.7h3.3c1.5,0,2.7-1.2,2.7-2.7v-4.3    C90.9,71.2,89.7,70,88.2,70z"></path><path d="M41.6,17.5C23.7,17.5,9.1,32.1,9.1,50s14.6,32.5,32.5,32.5S74.1,67.9,74.1,50S59.5,17.5,41.6,17.5z M41.6,76.8    c-9.1,0-17.1-4.5-21.9-11.4l16-8.8c1.6,1.4,3.7,2.3,6,2.3c2.3,0,4.4-0.9,6-2.3l16,8.8C58.7,72.3,50.6,76.8,41.6,76.8z M66.3,60.4    l-16-8.8c0.1-0.5,0.2-1,0.2-1.6c0-4.9-4-8.9-8.9-8.9c-4.9,0-8.9,4-8.9,8.9c0,0.5,0.1,1.1,0.2,1.6l-16,8.8    c-1.4-3.2-2.1-6.7-2.1-10.4c0-14.8,12-26.8,26.8-26.8s26.8,12,26.8,26.8C68.4,53.7,67.7,57.2,66.3,60.4z"></path></g></g></svg>