<svg height='300px' width='300px'   xmlns="http://www.w3.org/2000/svg" xmlns:xlink="http://www.w3.org/1999/xlink" version="1.1" x="0px" y="0px" viewBox="0 0 80 80" enable-background="new 0 0 80 80" xml:space="preserve"><path d="M66.049,59.348c-2.177-2.812-7.466-3.528-11.639-4.504c-0.961-0.224-5.029-0.867-5.02-2.026  c0.016-1.604,3.763-3.154,5.05-3.778c0.983-0.478,4.576-1.674,5.57-2.132c0.118-0.054,0.193-0.176,0.248-0.267  c0.019-0.028,0.037-0.052,0.055-0.082c0.014-0.017,0.026-0.031,0.038-0.022c0,0-0.013-0.012-0.024-0.02  c0.046-0.093,0.09-0.186,0.098-0.291l0.443-5.072l3.185,0.279l0.548-6.253l0.478-5.469l0.069-0.79  c0.164-1.878-0.131-3.483-1.715-3.998l-2.428-13.387c-0.193-0.803-0.798-1.47-1.931-1.569c0,0-3.542-0.571-9.42-1.191L40.53,7.979  c-5.896-0.411-9.484-0.463-9.484-0.463c-1.131-0.099-1.837,0.256-2.173,1.209l-4.714,12.762c-1.649,0.232-2.22,1.762-2.384,3.641  l-0.069,0.788l-0.479,5.47l-0.547,6.251l3.184,0.279l-0.444,5.071c-0.004,0.048,0.017,0.092,0.021,0.139l-0.053,0.116  c-1.961,1.162-4.395,2.096-6.289,3.354c-1.47,0.979-3.513,2.427-3.483,4.35c0.022,1.454,1.966,2.358,3.229,2.836  c1.513,0.57,4.253,1.095,5.825,1.492c2.203,0.559,10.584,1.777,7.881,5.502c-1.291,1.777-4.188,3.073-6.162,4.179  c-2.021,1.132-4.161,2.061-6.325,2.935l-5.077,1.957c0.002,0,8.193,0,8.194,0c0,0,3.021-1.196,4.032-1.659  c1.758-0.81,3.466-1.748,5.166-2.642c4.408-2.32,6.188-5.966,3.954-8.851c-2.177-2.813-7.467-3.529-11.64-4.504  c-0.96-0.225-5.029-0.868-5.019-2.027c0.015-1.604,3.762-3.154,5.049-3.778c0.984-0.478,4.576-1.674,5.571-2.132  c0.049-0.022,0.089-0.058,0.125-0.098c0.26-0.157,0.444-0.398,0.47-0.69l0.443-5.07l26.066,2.28l-0.443,5.071  c-0.006,0.073,0.02,0.142,0.032,0.212c-1.941,1.131-4.313,2.057-6.172,3.291c-1.47,0.979-3.514,2.427-3.483,4.35  c0.022,1.454,1.966,2.358,3.229,2.836c1.513,0.569,4.252,1.094,5.825,1.492c2.202,0.559,10.584,1.777,7.88,5.502  c-1.29,1.777-4.187,3.072-6.162,4.178c-2.021,1.133-4.161,2.061-6.324,2.936L44.703,72.5c0.002,0,8.193,0,8.193,0  s3.021-1.196,4.033-1.659c1.758-0.81,3.466-1.748,5.165-2.643C66.502,65.879,68.282,62.233,66.049,59.348z M28.846,20.285  c-1.018-0.089-1.033-0.517-0.988-1.038l2.793-8.966c0.217-0.48,0.91-0.873,1.927-0.785c0,0,9.286,0.599,12.328,0.865  c3.041,0.266,12.314,1.291,12.314,1.291c1.018,0.089,1.599,0.568,1.76,1.107l1.195,9.315c-0.047,0.521-0.135,0.939-1.155,0.85  L28.846,20.285z"></path></svg>