<svg height='300px' width='300px'  fill="#000000" xmlns="http://www.w3.org/2000/svg" xmlns:xlink="http://www.w3.org/1999/xlink" version="1.1" x="0px" y="0px" viewBox="0 0 100 100" enable-background="new 0 0 100 100" xml:space="preserve"><rect fill="none" width="100" height="100"></rect><path d="M50,12.604c-20.652,0-37.396,16.742-37.396,37.396S29.348,87.396,50,87.396c20.653,0,37.396-16.742,37.396-37.396  S70.653,12.604,50,12.604z M50,17.403c15.104,0,27.808,10.271,31.508,24.21l-2.528,1.19c0,0-6.209-0.848-13.265,0  c0,0-3.73-2.931-15.201-4.133v-0.102c-0.173,0.017-0.344,0.033-0.514,0.049c-0.169-0.016-0.341-0.032-0.514-0.049v0.102  c-11.47,1.202-15.2,4.133-15.2,4.133c-7.057-0.848-13.266,0-13.266,0l-2.527-1.19C22.193,27.675,34.897,17.403,50,17.403z   M17.444,51.662C19.611,49.764,21.585,50,21.585,50c3.586,2.334,11.783,0.987,11.783,0.987c5.292,0.848,9.385,12.418,9.385,12.418  V77.8c-0.87,1.015-0.921,2.551-0.765,3.805C28.376,78.165,18.173,66.162,17.444,51.662z M58.012,81.604  c0.157-1.254,0.106-2.79-0.764-3.805V63.405c0,0,4.093-11.57,9.384-12.418c0,0,8.197,1.347,11.783-0.987  c0,0,1.975-0.236,4.141,1.662C81.827,66.162,71.624,78.165,58.012,81.604z"></path></svg>